#!OML:ASF F:\VICON\USERDATA\INSTALL\rory3\rory3.ASF
:FULLY-SPECIFIED
:DEGREES
1474
root -2.35964 17.7421 4.19661 -535.259 68.1446 185.565
lowerback 10.6206 5.01058 2.44639
upperback 0.424138 7.00292 0.178275
thorax -5.21327 3.40915 -2.20783
lowerneck -19.6017 -6.00374 -9.57765
upperneck 28.8241 -7.07202 7.28775
head 13.6807 -2.90823 3.33201
rclavicle -6.17444e-014 5.91384e-015
rhumerus -26.6294 -5.59019 -86.7995
rradius 33.2954
rwrist 3.49665
rhand -15.5465 9.03512
rfingers 7.12502
rthumb 10.6377 -20.6756
lclavicle -6.17444e-014 5.91384e-015
lhumerus -40.6939 3.7123 82.9307
lradius 28.3302
lwrist -9.13392
lhand -16.7756 25.5566
lfingers 7.12502
lthumb 9.45183 55.3246
rfemur 13.1814 2.33234 27.1993
rtibia 19.9056
rfoot -12.7599 -3.65627
rtoes -13.5652
lfemur -22.0506 -3.5107 -18.8657
ltibia 18.425
lfoot 3.71438 -8.88403
ltoes 7.25067
1475
root -2.23214 17.76 4.12582 -536.358 68.201 184.453
lowerback 10.6386 5.02951 1.97584
upperback 0.426554 6.96611 0.0909273
thorax -5.2671 3.39974 -2.03833
lowerneck -19.7407 -6.00504 -9.60637
upperneck 29.03 -7.04526 7.26398
head 13.7961 -2.89666 3.3371
rclavicle -8.94314e-014 4.52235e-015
rhumerus -26.8564 -5.72453 -86.7837
rradius 33.003
rwrist 3.76569
rhand -15.468 9.02095
rfingers 7.12502
rthumb 10.7133 -20.6859
lclavicle -8.94314e-014 4.52235e-015
lhumerus -40.7396 3.88649 82.8606
lradius 28.3179
lwrist -9.05394
lhand -16.6919 25.553
lfingers 7.12502
lthumb 9.53265 55.3174
rfemur 12.9034 2.20837 26.6042
rtibia 21.4025
rfoot -12.0794 -3.42933
rtoes -14.939
lfemur -21.5393 -3.27144 -19.5291
ltibia 18.4223
lfoot 3.90877 -8.43115
ltoes 6.66086
1476
root -2.10432 17.7806 4.05196 -537.184 68.1236 183.657
lowerback 10.6042 4.98322 1.76994
upperback 0.485435 6.8719 -0.0372187
thorax -5.19795 3.35938 -2.03787
lowerneck -19.7974 -6.02976 -9.63958
upperneck 29.0939 -7.10368 7.37939
head 13.8492 -2.90743 3.38039
rclavicle -9.93613e-015 -5.10628e-015
rhumerus -27.0421 -5.88483 -86.8429
rradius 32.7269
rwrist 3.80568
rhand -15.5202 8.85348
rfingers 7.12502
rthumb 10.663 -20.856
lclavicle -9.93613e-015 -5.10628e-015
lhumerus -40.6746 3.98029 82.6729
lradius 28.3557
lwrist -8.8954
lhand -16.1954 25.6074
lfingers 7.12502
lthumb 10.0117 55.3493
rfemur 12.5781 1.92813 26.0868
rtibia 23.0534
rfoot -11.3545 -2.81212
rtoes -14.6666
lfemur -20.9771 -2.86863 -20.1509
ltibia 18.4805
lfoot 3.69472 -7.80716
ltoes 5.4477
1477
root -1.97787 17.8077 3.9777 -537.729 67.9538 183.167
lowerback 10.5874 4.92624 1.7266
upperback 0.510054 6.78466 -0.151338
thorax -5.1571 3.31761 -2.11649
lowerneck -19.5963 -6.03596 -9.66977
upperneck 29.0236 -7.17015 7.55502
head 13.793 -2.91785 3.44583
rclavicle -2.30797e-014 -7.53101e-015
rhumerus -27.2413 -6.17736 -86.8604
rradius 32.3988
rwrist 3.9383
rhand -15.6598 8.46861
rfingers 7.12502
rthumb 10.5284 -21.2477
lclavicle -2.30797e-014 -7.53101e-015
lhumerus -40.5696 4.04311 82.4972
lradius 28.2998
lwrist -8.64632
lhand -15.8636 25.6154
lfingers 7.12502
lthumb 10.3317 55.3416
rfemur 12.1406 1.64999 25.7065
rtibia 24.8222
rfoot -10.5215 -2.00539
rtoes -12.5297
lfemur -20.4511 -2.83358 -20.5624
ltibia 18.6318
lfoot 3.57687 -7.42681
ltoes 6.01415
1478
root -1.85155 17.831 3.90363 -537.943 67.8121 183.043
lowerback 10.6284 4.88822 1.78856
upperback 0.484243 6.73909 -0.212701
thorax -5.19439 3.29185 -2.21299
lowerneck -19.4611 -6.04063 -9.68371
upperneck 29.1028 -7.19857 7.62259
head 13.8053 -2.92034 3.47581
rclavicle 2.04174e-014 -1.31943e-014
rhumerus -27.5855 -6.62851 -86.7802
rradius 32.1016
rwrist 4.41945
rhand -15.8428 8.34424
rfingers 7.12502
rthumb 10.3518 -21.381
lclavicle 2.04174e-014 -1.31943e-014
lhumerus -40.5957 4.06627 82.3983
lradius 28.2975
lwrist -8.45261
lhand -15.8737 25.4991
lfingers 7.12502
lthumb 10.322 55.2257
rfemur 11.541 1.24031 25.401
rtibia 26.7832
rfoot -9.67396 -1.20473
rtoes -13.0286
lfemur -19.9002 -3.11193 -20.7348
ltibia 18.7532
lfoot 3.658 -7.56949
ltoes 8.70868
